<svg data-name="Layer 1" id="Layer_1"
     viewBox="0 0 59 59"
     xmlns="http://www.w3.org/2000/svg">
    <defs>
        <style>
            .cls-1 {
            fill: #fff;
            }
        </style>
    </defs>
    <title>close</title>
    <path class="cls-1"
          d="M79,77l-.5-.49h0l-21-21L79,34,79,34a5,5,0,0,0-7-7L72,27,50.5,48.43,29,27,29,27a5,5,0,0,0-7,7L22,34,43.43,55.5l-21,21h0L22,77,22,77a5,5,0,0,0,7,7L29,84l.49-.5h0l21-21,21,21h0L72,84,72,84a5,5,0,0,0,7-7Z"
          transform="translate(-21 -26)"/>
</svg>